# xmcd CD database file
#
# Track frame offsets:
#	151
#	16679
#	35823
#	55341
#	71079
#	87258
#	102671
#	118625
#	134463
#	146109
#	156515
#	172941
#
# Disc length: 2545 seconds
#
# Revision: 0
# Processed by: cddbd v1.5.2PL0 Copyright (c) Steve Scherf et al.
# Submitted via: CDex 1.70beta2
#
DISCID=ae09ef0c
DTITLE=The Cormiers - Cdn. - NL - The Cormiers
DYEAR=2005
DGENRE=Country
TTITLE0=Mafic of the Dance
TTITLE1=Calling Out His Name
TTITLE2=Keeping Myself Company
TTITLE3=Not Me, Not Now
TTITLE4=Saturday Nicht Ceilidh
TTITLE5=If Someone Would Care
TTITLE6=Imagine(It's All Up To You)
TTITLE7=Memnoire of You
TTITLE8=I'm Free
TTITLE9=Back To the Sea
TTITLE10=Show the Way
TTITLE11=Last Kiss
EXTD=YEAR: 2005
EXTT0=
EXTT1=
EXTT2=
EXTT3=
EXTT4=
EXTT5=
EXTT6=
EXTT7=
EXTT8=
EXTT9=
EXTT10=
EXTT11=
PLAYORDER=
